<svg id="Layer_1" enable-background="new 0 0 128 128" height="512" viewBox="0 0 128 128" width="512" xmlns="http://www.w3.org/2000/svg"><path d="m95.895 82.23h5.163c.032 0 .059-.015.09-.018.468 2.699 2.821 4.76 5.652 4.76 3.166 0 5.742-2.576 5.742-5.742s-2.576-5.742-5.742-5.742c-2.831 0-5.184 2.061-5.652 4.76-.031-.003-.058-.018-.09-.018h-5.163c-4.101 0-7.438-3.337-7.438-7.438v-7.746h8.892c4.661 0 9-2.398 11.607-6.413 1.532-2.343 2.473-5.117 2.72-8.028.042-.526.063-1.053.063-1.589 0-7.236-4.18-13.628-10.244-15.797-1.602-13.759-11.934-24.054-24.266-24.054-7.808 0-15.095 4.191-19.711 11.273-2.509-2.061-5.539-3.183-8.648-3.183-7.355 0-13.469 5.997-14.539 14.095-7.816.378-14.072 7.673-14.072 16.585 0 .518.024 1.01.071 1.464.001.017.002.033.003.05h-.002c.062.846.187 1.706.37 2.557 1.651 7.678 7.872 13.04 15.127 13.04h6.713v7.746c0 4.101-3.336 7.438-7.438 7.438h-4.256c-.475-2.69-2.825-4.742-5.649-4.742-3.166 0-5.742 2.576-5.742 5.742s2.576 5.742 5.742 5.742c2.824 0 5.174-2.052 5.649-4.742h4.256c5.204 0 9.438-4.233 9.438-9.438v-7.746h9.039v31.866c0 4.101-3.336 7.438-7.438 7.438h-10.203c-.044 0-.082.02-.125.025-.465-2.702-2.82-4.767-5.653-4.767-3.166 0-5.742 2.576-5.742 5.742s2.576 5.742 5.742 5.742c2.833 0 5.188-2.065 5.653-4.767.043.006.08.025.125.025h10.205c5.204 0 9.438-4.233 9.438-9.438v-31.866h9.418v46.397c-2.69.475-4.742 2.825-4.742 5.649 0 3.166 2.576 5.742 5.742 5.742s5.742-2.576 5.742-5.742c0-2.824-2.052-5.174-4.742-5.649v-46.397h9.419v31.866c0 5.204 4.234 9.438 9.438 9.438h10.205c.044 0 .082-.02.125-.025.465 2.702 2.82 4.767 5.653 4.767 3.166 0 5.742-2.576 5.742-5.742s-2.576-5.742-5.742-5.742c-2.833 0-5.188 2.065-5.653 4.767-.043-.006-.08-.025-.125-.025h-10.205c-4.102 0-7.438-3.337-7.438-7.438v-31.866h8.039v7.746c-.001 5.204 4.233 9.438 9.437 9.438z" fill="#e6e7e8"/><path d="m106.737 45.015c0-7.219-4.317-13.276-10.169-15.053-1.28-13.38-11.237-23.795-23.336-23.795-8.117 0-15.271 4.687-19.488 11.813-2.392-2.319-5.488-3.725-8.877-3.725-7.124 0-12.975 6.186-13.64 14.095-.086-.002-.17-.015-.257-.015-7.57 0-13.707 6.983-13.707 15.597 0 1.317.144 2.614.414 3.866 1.574 7.293 7.549 12.25 14.149 12.25h5.712 55.807c4.205 0 8.271-2.115 10.776-5.959 1.645-2.526 2.616-5.649 2.616-9.074z" fill="#fff"/><path d="m106.679 46.526c-.24 2.83-1.16 5.42-2.56 7.56-2.5 3.85-6.57 5.96-10.77 5.96h-61.52c-6.6 0-12.58-4.95-14.15-12.25-.17-.791-.29-1.602-.35-2.424 0-.012 0-.024 0-.036.675-7.585 6.124-13.554 12.874-13.976h.008c.869-.055 1.554-.798 1.496-1.667-.035-.533-.031-1.096.078-1.496 1.736-6.335 6.934-10.94 13.084-10.94 2.669 0 5.151.874 7.253 2.372.912.65 2.161.426 2.808-.488 4.307-6.079 10.908-9.974 18.299-9.974 11.728 0 21.446 9.789 23.198 22.575.098.714.545 1.333 1.212 1.604 4.904 1.99 8.527 7.066 9.04 13.18z" fill="#6dc9f7"/><g fill="#fa759e"><path d="m25.942 77.23c0-2.619-2.123-4.742-4.742-4.742s-4.742 2.123-4.742 4.742 2.123 4.742 4.742 4.742 4.742-2.123 4.742-4.742z"/><path d="m102.801 72.487c-2.619 0-4.742 2.123-4.742 4.742s2.123 4.742 4.742 4.742 4.742-2.123 4.742-4.742c0-2.618-2.123-4.742-4.742-4.742z"/><path d="m26.161 96.608c-2.619 0-4.742 2.123-4.742 4.742s2.123 4.742 4.742 4.742 4.742-2.123 4.742-4.742-2.123-4.742-4.742-4.742z"/><path d="m97.839 96.608c-2.619 0-4.742 2.123-4.742 4.742s2.123 4.742 4.742 4.742 4.742-2.123 4.742-4.742c.001-2.619-2.123-4.742-4.742-4.742z"/><path d="m62 108.35c-2.619 0-4.742 2.123-4.742 4.742s2.123 4.742 4.742 4.742 4.742-2.123 4.742-4.742-2.123-4.742-4.742-4.742z"/></g><path d="m104.279 51.748c-.292.622-.627 1.225-.999 1.794-.543.837-1.18 1.603-1.893 2.276-.401.38-.419 1.013-.039 1.414.196.208.462.313.727.313.247 0 .494-.091.688-.273.827-.783 1.565-1.672 2.193-2.639.421-.645.803-1.329 1.134-2.035.234-.5.02-1.096-.48-1.33-.504-.235-1.097-.019-1.331.48z" fill="#3a2c60"/><path d="m91.896 78.229h5.163c.032 0 .059-.015.09-.018.468 2.699 2.821 4.76 5.652 4.76 3.166 0 5.742-2.576 5.742-5.742s-2.576-5.742-5.742-5.742c-2.831 0-5.184 2.061-5.652 4.76-.031-.003-.058-.018-.09-.018h-5.163c-4.102 0-7.438-3.337-7.438-7.438v-7.746h8.893c1.66 0 3.291-.302 4.848-.897.516-.197.773-.775.576-1.291-.197-.517-.773-.772-1.291-.576-1.327.507-2.718.765-4.133.765h-61.522c-6.305 0-11.721-4.713-13.172-11.46-.161-.751-.271-1.507-.328-2.247 0-.037-.002-.074-.006-.11-.043-.395-.063-.817-.063-1.293 0-8.048 5.699-14.597 12.777-14.597h.005c.062.004.123.007.188.007.52 0 .953-.398.996-.917.628-7.51 6.063-13.173 12.644-13.173 2.978 0 5.881 1.222 8.175 3.438.221.213.522.313.829.272.303-.041.57-.218.727-.481 4.2-7.088 11.165-11.319 18.63-11.319 11.489 0 21.096 9.843 22.345 22.896.038.403.317.744.706.861 5.569 1.685 9.459 7.48 9.459 14.093 0 .482-.019.956-.056 1.424-.036.414-.086.823-.151 1.226-.088.545.282 1.059.827 1.147.545.085 1.059-.282 1.147-.827.073-.451.129-.909.17-1.38.042-.526.063-1.053.063-1.59 0-7.236-4.18-13.628-10.243-15.797-1.605-13.758-11.936-24.053-24.268-24.053-7.808 0-15.096 4.191-19.712 11.273-2.51-2.062-5.539-3.184-8.648-3.184-7.355 0-13.469 5.998-14.538 14.096-7.816.378-14.071 7.672-14.071 16.584 0 .531.023 1.011.07 1.465.001.017.002.033.004.049h-.002c.063.844.187 1.704.37 2.557 1.65 7.678 7.871 13.04 15.127 13.04h6.714v7.746c0 4.101-3.337 7.438-7.438 7.438h-4.256c-.475-2.69-2.825-4.742-5.649-4.742-3.166 0-5.742 2.576-5.742 5.742s2.576 5.742 5.742 5.742c2.824 0 5.174-2.052 5.649-4.742h4.256c5.204 0 9.438-4.233 9.438-9.438v-7.746h9.038v31.866c0 4.101-3.337 7.438-7.438 7.438h-10.205c-.044 0-.082.02-.124.025-.465-2.702-2.82-4.767-5.653-4.767-3.166 0-5.742 2.576-5.742 5.742 0 3.167 2.576 5.743 5.742 5.743 2.833 0 5.188-2.065 5.653-4.768.042.006.08.025.124.025h10.205c5.204 0 9.438-4.233 9.438-9.438v-31.866h9.418v46.397c-2.69.475-4.742 2.825-4.742 5.65 0 3.166 2.576 5.742 5.742 5.742s5.742-2.576 5.742-5.742c0-2.825-2.052-5.175-4.742-5.65v-46.397h9.419v31.866c0 5.204 4.233 9.438 9.438 9.438h10.205c.044 0 .082-.02.124-.025.465 2.703 2.82 4.768 5.653 4.768 3.166 0 5.742-2.576 5.742-5.743 0-3.166-2.576-5.742-5.742-5.742-2.833 0-5.188 2.065-5.653 4.767-.043-.006-.08-.025-.124-.025h-10.205c-4.101 0-7.438-3.337-7.438-7.438v-31.866h8.038v7.746c0 5.204 4.235 9.437 9.439 9.437zm10.905-4.742c2.063 0 3.742 1.679 3.742 3.742s-1.679 3.742-3.742 3.742-3.742-1.679-3.742-3.742 1.678-3.742 3.742-3.742zm-81.602 7.485c-2.063 0-3.742-1.679-3.742-3.742s1.679-3.742 3.742-3.742 3.742 1.679 3.742 3.742-1.678 3.742-3.742 3.742zm4.962 24.121c-2.063 0-3.742-1.679-3.742-3.743 0-2.063 1.679-3.742 3.742-3.742s3.742 1.679 3.742 3.742c0 2.064-1.678 3.743-3.742 3.743zm39.581 8c0 2.063-1.679 3.742-3.742 3.742s-3.742-1.679-3.742-3.742c0-2.064 1.679-3.743 3.742-3.743s3.742 1.678 3.742 3.743zm32.097-15.486c2.063 0 3.742 1.679 3.742 3.742 0 2.064-1.679 3.743-3.742 3.743s-3.742-1.679-3.742-3.743c0-2.063 1.679-3.742 3.742-3.742z" fill="#3a2c60"/></svg>